<svg width="200" height="201" viewBox="0 0 200 201" fill="none" xmlns="http://www.w3.org/2000/svg">
<g opacity="0.5">
<path d="M136.643 11.0624L122.74 15.3928L135.275 28.8397L156.243 34.9933L150.546 17.8998C148.722 12.4299 142.797 9.01116 136.643 11.0624Z" fill="white"/>
<path d="M10.6065 63.9384L15.3927 77.8412L28.8396 65.3059L34.9933 44.1099L17.8998 49.8078C11.974 51.859 8.5553 58.2406 10.6065 63.9384Z" fill="white"/>
<path d="M43.882 166.272L49.5798 183.365C51.1752 189.519 57.7847 192.482 63.7105 190.886L78.2969 186.1L66.2175 172.881L43.882 166.272Z" fill="white"/>
<path d="M189.519 137.099L184.733 122.512L171.97 134.592L165.132 156.927L182.226 151.229C188.151 149.634 192.026 143.252 189.519 137.099Z" fill="white"/>
</g>
<g opacity="0.8">
<path d="M111.572 3.76913C107.242 -1.01707 100.405 -1.24498 95.6184 3.08538L83.539 14.2532L106.558 21.0906L135.048 29.2955L122.512 15.8486L111.572 3.76913Z" fill="white"/>
<path d="M3.76913 88.5531C-1.01707 92.8835 -1.24498 99.7209 3.08538 104.507L13.5694 115.903L19.951 93.5672L28.3838 65.3059L14.9369 77.8411L3.76913 88.5531Z" fill="white"/>
<path d="M197.04 96.0743L186.556 84.9065L179.719 107.47L171.742 134.364L184.505 122.284L195.901 111.572C200.915 107.926 201.37 100.86 197.04 96.0743Z" fill="white"/>
<path d="M65.7617 172.653L77.8411 185.872L88.3252 197.04C92.6555 201.826 99.7209 202.054 104.279 197.724L115.675 187.24L93.7951 180.858L65.7617 172.653Z" fill="white"/>
</g>
<path d="M186.1 44.1099L156.016 35.4492L135.048 29.2955L107.014 20.8627L83.9948 14.0252L58.4685 6.732C52.0869 5.1366 45.2495 8.3274 43.6541 14.9369L34.7654 44.7936L28.8397 65.9896L20.4068 94.2509L14.0253 116.587L6.04827 143.252C4.45287 149.634 7.64367 156.471 14.2532 158.067L44.3378 166.728L66.2175 173.109L93.7951 181.314L115.675 187.696L141.885 195.445C148.267 197.04 155.104 193.849 156.699 187.24L165.36 157.611L172.198 135.275L180.402 108.382L187.24 85.8181L194.989 59.8359C195.901 52.5427 192.482 45.7053 186.1 44.1099ZM135.959 52.7706V76.4737H104.507H62.343C62.5709 74.8783 63.2547 72.827 63.9384 71.0037C65.3059 67.585 67.3571 64.1663 70.32 61.6593C73.055 59.3801 76.4737 56.6451 79.6645 55.2777C83.0832 53.6823 87.1856 52.9985 91.0601 52.9985H135.959V52.7706ZM66.2175 149.406V125.703H109.749C110.433 125.703 111.344 125.703 112.028 125.475C112.712 125.247 113.396 124.791 114.079 124.108C114.763 123.424 114.991 122.74 115.447 122.056C115.675 121.373 115.675 120.689 115.675 119.777C115.675 119.094 115.675 118.182 115.447 117.498C115.219 116.814 114.763 116.131 114.079 115.447C113.396 114.763 112.712 114.535 112.028 114.079C111.344 113.852 110.661 113.852 109.749 113.852H91.516C87.8694 113.852 83.3111 113.168 80.1203 111.572C76.7016 110.205 73.2829 108.154 70.7758 105.191C68.4967 102.912 65.7617 99.0371 64.3942 95.8463C63.4826 93.7951 63.0267 92.1997 62.7988 90.1485H91.7439H104.963H109.977C113.624 90.1485 118.182 91.0601 121.373 92.4276C124.791 93.7951 128.21 95.8463 130.717 98.8092C132.996 101.088 135.731 104.963 137.099 108.154C138.694 111.572 139.378 115.675 139.378 120.005C139.378 123.652 138.466 128.21 137.099 131.401C135.731 134.82 133.68 138.238 130.717 140.745C128.438 143.025 124.563 145.759 121.373 147.127C117.726 148.722 113.624 149.406 109.521 149.406H66.2175Z" fill="white"/>
</svg>
